<?xml version="1.0" encoding="utf-8"?>
<!-- Generator: Adobe Illustrator 22.1.0, SVG Export Plug-In . SVG Version: 6.00 Build 0)  -->
<svg version="1.1" id="Layer_1" xmlns="http://www.w3.org/2000/svg" xmlns:xlink="http://www.w3.org/1999/xlink" x="0px" y="0px" width="28px" height="32px"
	 viewBox="0 0 68.3 68.3" style="enable-background:new 0 0 68.3 68.3;" xml:space="preserve">
<style type="text/css">
	.st0{fill:#969AA0;}
</style>
<title>icon--black</title>
<g id="Layer_2_1_">
	<g id="brand">
		<g id="icon--black">
			<path class="st0" d="M29.5,2l-6.3-1.6c-5.6-1.5-11.4,1.9-12.9,7.5c0,0,0,0,0,0l-1.6,5.9C13.9,7.4,21.3,3.1,29.5,2z"/>
			<path class="st0" d="M1.9,39.3l-1.5,5.8c-1.5,5.6,1.9,11.4,7.5,12.9l6,1.6C7.5,54.6,3.2,47.4,1.9,39.3z"/>
			<path class="st0" d="M60.5,10.3l-6.7-1.8c6.9,5.3,11.3,13.1,12.4,21.7l1.8-7C69.5,17.5,66.1,11.7,60.5,10.3z"/>
			<path class="st0" d="M38.7,66.3l6.5,1.7c5.6,1.5,11.4-1.9,12.9-7.5l1.8-6.8C54.8,60.5,47.1,65,38.7,66.3z"/>
			<path class="st0" d="M34.2,4.5C17.8,4.5,4.5,17.8,4.5,34.2c0,16.4,13.3,29.6,29.6,29.6s29.6-13.3,29.6-29.6c0,0,0,0,0,0
				C63.8,17.8,50.5,4.5,34.2,4.5z M17.4,19.3c0.9-4.6,5.3-7.6,9.9-6.7s7.6,5.3,6.7,9.9c-0.9,4.6-5.3,7.6-9.9,6.7
				C19.5,28.3,16.5,23.9,17.4,19.3C17.4,19.3,17.4,19.3,17.4,19.3z M29.7,44.9c-0.9,4.6-5.3,7.6-9.9,6.7c-4.6-0.9-7.6-5.3-6.7-9.9
				c0.9-4.6,5.3-7.6,9.9-6.7C27.6,35.9,30.6,40.3,29.7,44.9C29.7,44.9,29.7,44.9,29.7,44.9z M33.3,38.1c-2-0.4-3.4-2.4-3-4.4
				c0.4-2,2.4-3.4,4.4-3c2,0.4,3.4,2.4,3,4.4C37.3,37.1,35.4,38.5,33.3,38.1C33.3,38.1,33.3,38.1,33.3,38.1z M50.9,49
				c-0.9,4.6-5.3,7.6-9.9,6.7s-7.6-5.3-6.7-9.9c0.9-4.6,5.3-7.6,9.9-6.7C48.8,40,51.8,44.4,50.9,49C50.9,49,50.9,49,50.9,49z
				 M45.3,33.3c-4.6-0.9-7.6-5.3-6.7-9.9s5.3-7.6,9.9-6.7c4.6,0.9,7.6,5.3,6.7,9.9C54.4,31.2,49.9,34.2,45.3,33.3
				C45.3,33.3,45.3,33.3,45.3,33.3L45.3,33.3z"/>
		</g>
	</g>
</g>
</svg>
