<?xml version="1.0" encoding="utf-8"?>
<!-- Generator: Adobe Illustrator 22.1.0, SVG Export Plug-In . SVG Version: 6.00 Build 0)  -->
<svg version="1.1" id="Capa_1" xmlns="http://www.w3.org/2000/svg" xmlns:xlink="http://www.w3.org/1999/xlink" x="0px" y="0px" width="20px" height="20px"
	 viewBox="0 0 512 512" style="enable-background:new 0 0 512 512;" xml:space="preserve">
<style type="text/css">
	.st0{fill:#929292;}
</style>
<g>
	<g>
		<polygon class="st0" points="30,438.8 30,43.2 0,43.2 0,468.8 512,468.8 512,438.8 		"/>
	</g>
</g>
<g>
	<g>
		<path class="st0" d="M488,86h-83.3v30h30.6l-43.6,51.5c-4.3-1.3-8.9-2-13.7-2c-25.9,0-46.9,21.1-46.9,46.9
			c0,9.1,2.6,17.6,7.1,24.8l-41.5,54.1c-5.5-2.3-11.6-3.6-17.9-3.6c-11.4,0-21.9,4.1-30.1,10.9L200.5,261c-1-25-21.7-45-46.9-45
			c-25.9,0-46.9,21.1-46.9,46.9c0,10.1,3.2,19.5,8.7,27.2L49.3,393.6l25.3,16.2l65.2-102c4.4,1.4,9,2.1,13.9,2.1
			c15.1,0,28.6-7.2,37.2-18.4l42.3,32.9c-0.7,3.3-1.1,6.7-1.1,10.2c0,25.9,21.1,46.9,46.9,46.9c25.9,0,46.9-21.1,46.9-46.9
			c0-8.6-2.3-16.7-6.4-23.6l42.1-54.8c5.2,2,10.8,3,16.6,3c25.9,0,46.9-21.1,46.9-46.9c0-10.2-3.3-19.6-8.8-27.3l42.4-50.1l0.4,35.5
			l30-0.4L488,86z"/>
	</g>
</g>
</svg>
