<?xml version="1.0" encoding="utf-8"?>
<!-- Generator: Adobe Illustrator 22.1.0, SVG Export Plug-In . SVG Version: 6.00 Build 0)  -->
<svg version="1.1" id="Capa_1" xmlns="http://www.w3.org/2000/svg" xmlns:xlink="http://www.w3.org/1999/xlink" x="0px" y="0px" width="20px" height="20px"
	 viewBox="0 0 20 20" style="enable-background:new 0 0 20 20;" xml:space="preserve">
<style type="text/css">
	.st0{fill:#C8C4BB;}
</style>
<g>
	<g>
		<path class="st0" d="M18.8,8l-1.3,0.2V7C18.9,6.8,20,5.5,20,4C20,2.4,18.6,1,16.9,1c-1.7,0-3.1,1.4-3.1,3.1c0,1.5,1.1,2.7,2.5,3
			v1.2L3.6,9.9V9.1c1.4-0.3,2.5-1.5,2.5-3C6.1,4.4,4.7,3,3.1,3S0,4.4,0,6.1c0,1.5,1.1,2.7,2.5,3v1l-1.4,0.2c-0.3,0-0.5,0.3-0.5,0.7
			c0,0.3,0.3,0.5,0.6,0.5c0,0,0.1,0,0.1,0l7.9-1l-1.4,6.3h4.5l-1.6-6.5l8.3-1.1c0.3,0,0.5-0.3,0.5-0.7C19.4,8.2,19.1,7.9,18.8,8z
			 M3.5,7.2L3.4,6.7H2.7L2.6,7.2c0,0.1-0.1,0.1-0.2,0.1c-0.1,0-0.2,0-0.2-0.1C2.1,7.2,2,7.1,2,7c0,0,0,0,0,0l0.7-2.1
			c0-0.1,0.1-0.1,0.1-0.1c0.1,0,0.1,0,0.2,0c0.1,0,0.2,0,0.2,0c0.1,0,0.1,0.1,0.1,0.1L4.1,7c0,0,0,0,0,0c0,0.1,0,0.1-0.1,0.2
			c-0.1,0-0.2,0.1-0.2,0.1C3.6,7.3,3.6,7.2,3.5,7.2z M16.4,5.3c-0.1,0-0.1,0-0.2,0c0,0-0.1-0.1-0.1-0.1V2.9c0-0.1,0-0.1,0.1-0.1
			c0,0,0.1,0,0.2,0h0.7c0.5,0,0.7,0.2,0.7,0.6c0,0.3-0.1,0.5-0.3,0.5c0.1,0,0.2,0.1,0.3,0.2c0.1,0.1,0.1,0.2,0.1,0.4v0.1
			c0,0.3-0.1,0.5-0.2,0.6c-0.1,0.1-0.3,0.2-0.5,0.2L16.4,5.3L16.4,5.3z"/>
	</g>
</g>
<g>
	<g>
		<path class="st0" d="M13.1,17.8h-0.5H7.5H6.9c-0.3,0-0.6,0.3-0.6,0.6c0,0.3,0.3,0.6,0.6,0.6h0.3h5.6h0.3c0.3,0,0.6-0.3,0.6-0.6
			C13.7,18.1,13.4,17.8,13.1,17.8z"/>
	</g>
</g>
<g>
	<g>
		<polygon class="st0" points="3,5.4 2.8,6.3 3.3,6.3 		"/>
	</g>
</g>
<g>
	<g>
		<path class="st0" d="M17.2,3.3c0,0-0.1-0.1-0.1-0.1h-0.4v0.5H17c0.1,0,0.1,0,0.1-0.1c0,0,0.1-0.1,0.1-0.2
			C17.2,3.4,17.2,3.4,17.2,3.3z"/>
	</g>
</g>
<g>
	<g>
		<path class="st0" d="M17,4.1h-0.3v0.7H17c0.2,0,0.3-0.1,0.3-0.3V4.5C17.3,4.3,17.2,4.1,17,4.1z"/>
	</g>
</g>
</svg>
