<?xml version="1.0" encoding="utf-8"?>
<!-- Generator: Adobe Illustrator 22.1.0, SVG Export Plug-In . SVG Version: 6.00 Build 0)  -->
<svg version="1.1" id="Layer_1" xmlns="http://www.w3.org/2000/svg" xmlns:xlink="http://www.w3.org/1999/xlink" x="0px" y="0px" width="20px" height="20px"
	 viewBox="0 0 512 512" style="enable-background:new 0 0 512 512;" xml:space="preserve">
<style type="text/css">
	.st0{fill:#929292;}
</style>
<path class="st0" d="M165.3,448c-2.3,0-4.5-0.5-6.7-1.5c-5.7-2.6-9.3-8.3-9.3-14.5V263c0-7-2.9-13.9-7.8-18.9L17.2,119.9
	C6.1,108.8,0,94.1,0,78.4V37.3C0,16.7,16.7,0,37.3,0h336c20.6,0,37.3,16.7,37.3,37.3V78c0,15.8-6.5,31.2-17.9,42.2L264.2,244.2
	c-5.2,5-8.2,12-8.2,19.2v84.9c0,17.1-7.5,33.4-20.5,44.5l-59.8,51.2C172.8,446.7,169.1,448,165.3,448z M37.3,32
	c-2.9,0-5.3,2.4-5.3,5.3v41.1c0,7.1,2.8,13.8,7.8,18.9l124.3,124.2c10.9,10.9,17.2,26,17.2,41.5v134.2l33.3-28.6
	c5.9-5.1,9.3-12.4,9.3-20.2v-84.9c0-15.8,6.5-31.2,17.9-42.2L370.5,97.2c5.2-5,8.1-12,8.1-19.2V37.3c0-2.9-2.4-5.3-5.3-5.3H37.3z"/>
<path class="st0" d="M474.7,512H336c-20.6,0-37.3-16.7-37.3-37.3V293.3c0-20.6,16.7-37.3,37.3-37.3h138.7
	c20.6,0,37.3,16.7,37.3,37.3v181.3C512,495.3,495.3,512,474.7,512z M336,288c-2.9,0-5.3,2.4-5.3,5.3v181.3c0,2.9,2.4,5.3,5.3,5.3
	h138.7c2.9,0,5.3-2.4,5.3-5.3V293.3c0-2.9-2.4-5.3-5.3-5.3H336z"/>
<path class="st0" d="M432,368h-53.3c-8.8,0-16-7.2-16-16s7.2-16,16-16H432c8.8,0,16,7.2,16,16S440.8,368,432,368z"/>
<path class="st0" d="M432,432h-53.3c-8.8,0-16-7.2-16-16s7.2-16,16-16H432c8.8,0,16,7.2,16,16S440.8,432,432,432z"/>
</svg>
