<?xml version="1.0" encoding="utf-8"?>
<!-- Generator: Adobe Illustrator 22.1.0, SVG Export Plug-In . SVG Version: 6.00 Build 0)  -->
<svg version="1.1" id="Layer_1" xmlns="http://www.w3.org/2000/svg" xmlns:xlink="http://www.w3.org/1999/xlink" x="0px" y="0px" 
	 viewBox="0 0 100 30" style="enable-background:new 0 0 100 30;" xml:space="preserve">
<style type="text/css">
	.st0{fill:#929292;}
</style>
<path class="st0" d="M38.8,9.4h22.5c1,0,1.9-0.8,1.9-1.9s-0.8-1.9-1.9-1.9H38.8c-1,0-1.9,0.8-1.9,1.9S37.7,9.4,38.8,9.4z M61.3,13.1
	H38.8c-1,0-1.9,0.8-1.9,1.9s0.8,1.9,1.9,1.9h22.5c1,0,1.9-0.8,1.9-1.9S62.3,13.1,61.3,13.1z M61.3,20.6H38.8c-1,0-1.9,0.8-1.9,1.9
	s0.8,1.9,1.9,1.9h22.5c1,0,1.9-0.8,1.9-1.9S62.3,20.6,61.3,20.6z"/>
</svg>
