<?xml version="1.0" encoding="utf-8"?>
<!-- Generator: Adobe Illustrator 22.1.0, SVG Export Plug-In . SVG Version: 6.00 Build 0)  -->
<svg version="1.1" id="Layer_1" xmlns="http://www.w3.org/2000/svg" xmlns:xlink="http://www.w3.org/1999/xlink" x="0px" y="0px" width="20px" height="20px"
	 viewBox="0 0 20 20" style="enable-background:new 0 0 20 20;" xml:space="preserve">
<style type="text/css">
	.st0{fill:#C8C4BB;}
</style>
<g>
	<g>
		<path class="st0" d="M18.3,0c-0.9,0-1.7,0.7-1.7,1.7s0.7,1.7,1.7,1.7c0.9,0,1.7-0.7,1.7-1.7C20,0.7,19.3,0,18.3,0z M18.3,2.5
			c-0.5,0-0.8-0.4-0.8-0.8s0.4-0.8,0.8-0.8c0.5,0,0.8,0.4,0.8,0.8C19.1,2.1,18.8,2.5,18.3,2.5z"/>
	</g>
</g>
<g>
	<g>
		<path class="st0" d="M1.7,9.6C0.7,9.6,0,10.3,0,11.2s0.7,1.7,1.7,1.7s1.7-0.7,1.7-1.7S2.6,9.6,1.7,9.6z M1.7,12.1
			c-0.5,0-0.8-0.4-0.8-0.8s0.4-0.8,0.8-0.8s0.8,0.4,0.8,0.8S2.1,12.1,1.7,12.1z"/>
	</g>
</g>
<g>
	<g>
		<path class="st0" d="M6.7,4.6C5.7,4.6,5,5.3,5,6.3c0,0.9,0.7,1.7,1.7,1.7c0.9,0,1.7-0.7,1.7-1.7S7.6,4.6,6.7,4.6z M6.7,7.1
			c-0.5,0-0.8-0.4-0.8-0.8c0-0.5,0.4-0.8,0.8-0.8c0.5,0,0.8,0.4,0.8,0.8C7.5,6.7,7.1,7.1,6.7,7.1z"/>
	</g>
</g>
<g>
	<g>
		<path class="st0" d="M10.2,8.1c-0.9,0-1.7,0.7-1.7,1.7c0,0.9,0.7,1.7,1.7,1.7s1.7-0.7,1.7-1.7C11.9,8.9,11.1,8.1,10.2,8.1z
			 M10.2,10.6c-0.5,0-0.8-0.4-0.8-0.8C9.4,9.3,9.8,9,10.2,9S11,9.3,11,9.8C11,10.2,10.7,10.6,10.2,10.6z"/>
	</g>
</g>
<g>
	<g>
		<rect x="9.8" y="5.3" transform="matrix(0.7064 -0.7078 0.7078 0.7064 0.1309 11.7771)" class="st0" width="9" height="0.9"/>
	</g>
</g>
<g>
	<g>
		<rect x="8" y="6.8" transform="matrix(0.7058 -0.7084 0.7084 0.7058 -3.2003 8.3411)" class="st0" width="0.9" height="2.5"/>
	</g>
</g>
<g>
	<g>
		<rect x="1.9" y="8.3" transform="matrix(0.7071 -0.7071 0.7071 0.7071 -4.9637 5.516)" class="st0" width="4.6" height="0.9"/>
	</g>
</g>
<g>
	<g>
		<rect x="0" y="19.1" class="st0" width="20" height="0.9"/>
	</g>
</g>
<g>
	<g>
		<rect x="17.9" y="7.1" class="st0" width="0.9" height="12.5"/>
	</g>
</g>
<g>
	<g>
		<rect x="10" y="13.3" class="st0" width="0.9" height="6.2"/>
	</g>
</g>
<g>
	<g>
		<rect x="1.2" y="14.6" class="st0" width="0.9" height="5"/>
	</g>
</g>
<g>
	<g>
		<rect x="6.2" y="10.8" class="st0" width="0.9" height="8.7"/>
	</g>
</g>
</svg>
