<?xml version="1.0" encoding="utf-8"?>
<!-- Generator: Adobe Illustrator 22.1.0, SVG Export Plug-In . SVG Version: 6.00 Build 0)  -->
<svg version="1.1" id="Capa_1" xmlns="http://www.w3.org/2000/svg" xmlns:xlink="http://www.w3.org/1999/xlink" x="0px" y="0px" width="23px" height="23px"
	 viewBox="0 0 20 20" style="enable-background:new 0 0 20 20;" xml:space="preserve">
<style type="text/css">
	.st0{fill:#FFFFFF;}
	.st1{fill:#FFAB31;}
</style>
<g>
	<g>
		<path class="st0" d="M10,0C6.1,0,3,3.2,3,7C3,8.3,3.3,9.6,4,10.7l5.6,9c0.1,0.2,0.3,0.3,0.5,0.3h0c0.2,0,0.4-0.1,0.5-0.3l5.4-9.1
			c0.6-1.1,1-2.3,1-3.6C17,3.2,13.9,0,10,0z M15,10l-4.9,8.3L5,10.1C4.4,9.2,4.1,8.1,4.1,7c0-3.2,2.6-5.9,5.9-5.9s5.9,2.6,5.9,5.9
			C15.9,8.1,15.6,9.1,15,10z"/>
	</g>
</g>
<g>
	<g>
		<path class="st0" d="M10,3.5C8.1,3.5,6.5,5.1,6.5,7C6.5,9,8,10.5,10,10.5c2,0,3.5-1.6,3.5-3.5C13.5,5.1,11.9,3.5,10,3.5z M10,9.4
			C8.7,9.4,7.6,8.3,7.6,7c0-1.3,1.1-2.4,2.4-2.4s2.3,1.1,2.3,2.4C12.3,8.3,11.3,9.4,10,9.4z"/>
	</g>
</g>
<circle class="st1" cx="13.9" cy="13.2" r="2"/>
</svg>
