<?xml version="1.0" encoding="utf-8"?>
<!-- Generator: Adobe Illustrator 22.1.0, SVG Export Plug-In . SVG Version: 6.00 Build 0)  -->
<svg version="1.1" id="Layer_1" xmlns="http://www.w3.org/2000/svg" xmlns:xlink="http://www.w3.org/1999/xlink" x="0px" y="0px" width='30px' height='30px'
	 viewBox="0 0 30 30" style="enable-background:new 0 0 30 30;" xml:space="preserve">
<style type="text/css">
	.st0{fill:#929292;}
</style>
<g>
	<g>
		<path class="st0" d="M11.2,8.9c-0.1,0.1-0.2,0.2-0.2,0.3C11.1,9.1,11.2,8.9,11.2,8.9z"/>
		<path class="st0" d="M14.3,9.2c1.1,0,1.8,0.4,2.2,1.2c0.2,0.4,0.4,1.1,0.4,1.9h1.7c0-1.4-0.4-2.5-1.2-3.3
			c-0.8-0.8-1.8-1.2-3.2-1.2c-1.2,0-2.2,0.4-3,1.1c-0.7,0.7-1.1,1.6-1.1,2.7c0,0.7,0.1,1.2,0.4,1.6c0.3,0.4,0.8,1,1.7,1.8
			c0.6,0.6,1,1.1,1.2,1.5s0.3,1,0.3,1.8h1.7c0-0.9-0.1-1.6-0.3-2.2c-0.2-0.6-0.7-1.2-1.4-1.9l-0.8-0.7c-0.2-0.2-0.4-0.4-0.5-0.7
			c-0.3-0.4-0.4-0.8-0.4-1.3c0-0.6,0.2-1.2,0.6-1.6C12.8,9.4,13.4,9.2,14.3,9.2z"/>
		<path class="st0" d="M29,14.8c0-7.9-6.4-14.3-14.3-14.3S0.5,6.9,0.5,14.8S6.9,29,14.8,29S29,22.6,29,14.8z M1.8,14.8
			c0-7.2,5.8-13,13-13s13,5.8,13,13s-5.8,13-13,13S1.8,21.9,1.8,14.8z"/>
		<path class="st0" d="M14.2,19.8L14.2,19.8c0.5,0,0.9,0.4,0.9,0.9v0.1c0,0.5-0.4,0.9-0.9,0.9l0,0c-0.5,0-0.9-0.4-0.9-0.9v-0.1
			C13.3,20.3,13.7,19.8,14.2,19.8z"/>
	</g>
</g>
</svg>
