<?xml version="1.0" encoding="utf-8"?>
<!-- Generator: Adobe Illustrator 22.1.0, SVG Export Plug-In . SVG Version: 6.00 Build 0)  -->
<svg version="1.1" id="Capa_1" xmlns="http://www.w3.org/2000/svg" xmlns:xlink="http://www.w3.org/1999/xlink" x="0px" y="0px" width="115px" height="30px"
	 viewBox="0 0 612 612" style="enable-background:new 0 0 612 612;" xml:space="preserve">
<style type="text/css">
	.st0{fill:#929292;}
</style>
<g>
	<g>
		<path class="st0" d="M230.7,181.2c-2.4,2.6-3.9,4.3-5.1,5.5C227.8,184.4,230.7,181.2,230.7,181.2z"/>
		<path class="st0" d="M295.7,186.2c22.7,0,38.4,8.4,47.1,25.3c4.9,9.4,7.7,22.9,8.3,40.6h36.3c0-29.3-8.3-52.9-24.9-70.8
			s-39.3-26.8-68.3-26.8c-26.8,0-48.2,7.6-64.3,22.9c-16.1,15.3-24.1,34.8-24.1,58.6c0,14.4,3,26.1,8.9,35.1s17.8,22.1,35.7,39.5
			c13,12.7,21.5,23.3,25.4,32.1c3.9,8.8,5.8,21.7,5.8,38.8h36.3c0-19.4-2.3-35.1-6.9-47c-4.6-11.9-14.7-25.5-30.4-40.9l-16.3-16.1
			c-4.9-4.6-8.8-9.5-11.8-14.5c-5.4-8.8-8.2-18-8.2-27.5c0-13.3,4-24.8,11.9-34.6C264.2,191.1,277.4,186.2,295.7,186.2z"/>
		<path class="st0" d="M612,306C612,137,475,0,306,0C137,0,0,137,0,306c0,169,137,306,306,306C475,612,612,475,612,306z M27.8,306
			C27.8,152.4,152.4,27.8,306,27.8S584.2,152.4,584.2,306S459.6,584.2,306,584.2S27.8,459.6,27.8,306z"/>
		<path class="st0" d="M294.8,415.2L294.8,415.2c11.2,0,20.3,9.1,20.3,20.3v1.8c0,11.2-9.1,20.3-20.3,20.3h0
			c-11.2,0-20.3-9.1-20.3-20.3v-1.8C274.5,424.3,283.6,415.2,294.8,415.2z"/>
	</g>
</g>
</svg>
