<?xml version="1.0" encoding="utf-8"?>
<!-- Generator: Adobe Illustrator 22.1.0, SVG Export Plug-In . SVG Version: 6.00 Build 0)  -->
<svg version="1.1" id="Layer_1" xmlns="http://www.w3.org/2000/svg" xmlns:xlink="http://www.w3.org/1999/xlink" x="0px" y="0px" width="150px" height="70px"
	 viewBox="0 0 512 512" style="enable-background:new 0 0 512 512;" xml:space="preserve">
<style type="text/css">
	.st0{fill:#FFFFFF;}
	.st1{fill:#FFDC69;}
	.st2{fill:#FFC864;}
</style>
<path class="st0" d="M494.3,185.4H17.7C7.9,185.4,0,193.3,0,203V309c0,9.8,7.9,17.7,17.7,17.7h476.7c9.8,0,17.7-7.9,17.7-17.7V203
	C512,193.3,504.1,185.4,494.3,185.4z M116.6,251l-15.2,14.9l3.6,21c0.5,2.8-2.4,4.9-4.9,3.6l-18.8-9.9l-18.8,9.9
	c-2.2,1.1-4.7-0.3-4.9-2.6c0-0.2,0-0.3,0-0.5c0-0.1,0-0.1,0-0.2c0-0.1,0-0.2,0-0.3l0.4-2.4l3.2-18.6L45.8,251
	c-0.3-0.3-0.6-0.7-0.7-1.1c-0.2-0.5-0.3-1-0.3-1.5c0-0.2,0-0.3,0.1-0.4c0-0.1,0.1-0.3,0.1-0.4c0.1-0.3,0.2-0.6,0.4-0.8
	c0.1-0.1,0.2-0.2,0.3-0.4c0.5-0.6,1.2-1,2.1-1.1L63,243l5.7-0.8l5.1-10.3l4.3-8.8c0.5-0.9,1.3-1.5,2.1-1.8c0.3-0.1,0.6-0.1,0.9-0.1
	c1.2,0,2.4,0.6,3,1.9l9.4,19.1l21.1,3.1C117.5,245.6,118.6,249,116.6,251z M204,251l-15.2,14.9l3.6,21c0.5,2.8-2.4,4.9-4.9,3.6
	l-18.8-9.9l-18.8,9.9c-2.2,1.1-4.7-0.3-4.9-2.6c0-0.2,0-0.3,0-0.5c0-0.1,0-0.1,0-0.2c0-0.1,0-0.2,0-0.3l0.4-2.4l3.2-18.6L133.2,251
	c-0.3-0.3-0.6-0.7-0.7-1.1c-0.2-0.5-0.3-1-0.3-1.5c0-0.2,0-0.3,0.1-0.4c0.1-0.4,0.3-0.9,0.5-1.3c0.2-0.3,0.4-0.5,0.6-0.7
	c0.5-0.4,1.1-0.7,1.7-0.8l15.2-2.2l5.9-0.9l6-12.2l3.4-6.9c0.5-0.9,1.3-1.5,2.1-1.8c0.3-0.1,0.6-0.1,0.9-0.1c1.2,0,2.4,0.6,3,1.9
	l9.4,19.1l21.1,3.1C204.9,245.6,206,249,204,251z M291.4,251l-15.2,14.9l3.6,21c0.5,2.8-2.4,4.9-4.9,3.6l-18.8-9.9l-18.8,9.9
	c-2.2,1.1-4.7-0.3-4.9-2.6c0-0.2,0-0.3,0-0.5c0-0.1,0-0.1,0-0.2c0-0.1,0-0.2,0-0.3l0.4-2.4l3.2-18.6L220.6,251
	c-0.3-0.3-0.6-0.7-0.7-1.1c-0.2-0.5-0.3-1-0.3-1.5c0-0.2,0-0.3,0.1-0.4c0.1-0.3,0.1-0.6,0.3-0.9c0.1-0.3,0.3-0.5,0.5-0.8
	c0.5-0.6,1.2-1,2.1-1.1l15.4-2.2l5.7-0.8l6-12.2l3.4-6.9c0.4-0.8,1.1-1.4,1.9-1.7c0.4-0.1,0.8-0.2,1.1-0.2c1.2,0,2.4,0.6,3,1.9
	l9.4,19.1l21.1,3.1C292.3,245.6,293.4,249,291.4,251z M378.8,251l-15.2,14.9l3.6,21c0.5,2.8-2.4,4.9-4.9,3.6l-18.8-9.9l-18.8,9.9
	c-2.2,1.1-4.7-0.3-4.9-2.6c0-0.2,0-0.3,0-0.5c0-0.1,0-0.1,0-0.2c0-0.1,0-0.2,0-0.3l0.4-2.4l3.2-18.6L308,251
	c-0.3-0.3-0.6-0.7-0.7-1.1c-0.2-0.5-0.3-1-0.3-1.5c0-0.2,0-0.3,0.1-0.4c0-0.1,0.1-0.3,0.1-0.4c0.1-0.3,0.2-0.6,0.4-0.8
	c0.1-0.1,0.2-0.2,0.3-0.4c0.5-0.6,1.2-1,2.1-1.1l15.4-2.2l5.7-0.8l5.1-10.3l4.3-8.8c0.5-0.9,1.3-1.5,2.1-1.8
	c0.3-0.1,0.6-0.1,0.9-0.1c1.2,0,2.4,0.6,3,1.9l9.4,19.1l21.1,3.1C379.7,245.6,380.8,249,378.8,251z M466.2,251L451,265.9l3.6,21
	c0.4,2.2-1.4,4-3.3,4c-0.5,0-1.1-0.1-1.6-0.4l-18.8-9.9l-18.8,9.9c-0.5,0.3-1.1,0.4-1.6,0.4c-2,0-3.7-1.8-3.3-4l3.6-21L395.4,251
	c-2-2-0.9-5.4,1.9-5.8l21.1-3.1l9.4-19.1c0.6-1.3,1.8-1.9,3-1.9s2.4,0.6,3,1.9l9.4,19.1l21.1,3.1C467.1,245.6,468.2,249,466.2,251z"
	/>
<g>
	<path class="st1" d="M44.9,247.5c0.1-0.3,0.2-0.6,0.4-0.8C45.1,247,45,247.2,44.9,247.5z"/>
	<path class="st1" d="M80.3,221.3c-0.9,0.2-1.7,0.8-2.1,1.8l-4.3,8.8l4.3-8.8C78.6,222.1,79.4,221.5,80.3,221.3z"/>
	<path class="st1" d="M47.6,245.2L63,243L47.6,245.2c-0.9,0.1-1.6,0.5-2.1,1.1C46.1,245.8,46.8,245.4,47.6,245.2z"/>
	<path class="st1" d="M44.8,248.4c0-0.2,0-0.3,0.1-0.4C44.8,248.1,44.8,248.3,44.8,248.4z"/>
	<path class="st1" d="M45.8,251c-0.3-0.3-0.6-0.7-0.7-1.1C45.2,250.3,45.4,250.7,45.8,251L61,265.9l-3.2,18.6l3.2-18.6L45.8,251z"/>
	<path class="st1" d="M57.4,287.4c0-0.1,0-0.1,0-0.2C57.4,287.2,57.4,287.3,57.4,287.4z"/>
	<path class="st1" d="M114.7,245.2l-21.1-3.1l-9.4-19.1c-0.6-1.3-1.8-1.9-3-1.9v59.3l-18.8,9.9c-2.2,1.1-4.7-0.3-4.9-2.6
		c0.3,2.2,2.8,3.7,4.9,2.6l18.8-9.9l18.8,9.9c2.5,1.3,5.4-0.8,4.9-3.6l-3.6-21l15.2-14.9C118.6,249,117.5,245.6,114.7,245.2z"/>
</g>
<path class="st2" d="M62.3,290.4l18.8-9.9v-59.3c-0.3,0-0.6,0-0.9,0.1c-0.9,0.2-1.7,0.8-2.1,1.8l-4.3,8.8l-5.1,10.3L63,243
	l-15.4,2.2c-0.9,0.1-1.6,0.5-2.1,1.1c-0.1,0.1-0.2,0.2-0.3,0.4c-0.2,0.3-0.3,0.5-0.4,0.8c0,0.1-0.1,0.3-0.1,0.4c0,0.1,0,0.3-0.1,0.4
	c0,0.5,0.1,1,0.3,1.5c0.2,0.4,0.4,0.8,0.7,1.1L61,265.9l-3.2,18.6l-0.4,2.4c0,0.1,0,0.2,0,0.3c0,0.1,0,0.1,0,0.2c0,0.2,0,0.3,0,0.5
	C57.7,290.1,60.2,291.5,62.3,290.4z"/>
<g>
	<path class="st1" d="M132.2,248.4c0-0.2,0-0.3,0.1-0.4C132.2,248.1,132.2,248.3,132.2,248.4z"/>
	<path class="st1" d="M167.7,221.3c-0.9,0.2-1.7,0.8-2.1,1.8l-3.4,6.9l3.4-6.9C166,222.1,166.8,221.5,167.7,221.3z"/>
	<path class="st1" d="M150.3,243l-15.2,2.2c-0.7,0.1-1.3,0.4-1.7,0.8c0.5-0.4,1.1-0.7,1.7-0.8L150.3,243z"/>
	<path class="st1" d="M144.8,287.4c0-0.1,0-0.1,0-0.2C144.8,287.2,144.8,287.3,144.8,287.4z"/>
	<path class="st1" d="M133.2,251c-0.3-0.3-0.6-0.7-0.7-1.1C132.6,250.3,132.9,250.7,133.2,251l15.2,14.9l-3.2,18.6l3.2-18.6
		L133.2,251z"/>
	<path class="st1" d="M202.1,245.2l-21.1-3.1l-9.4-19.1c-0.6-1.3-1.8-1.9-3-1.9v59.3l-18.8,9.9c-2.2,1.1-4.7-0.3-4.9-2.6
		c0.3,2.2,2.8,3.7,4.9,2.6l18.8-9.9l18.8,9.9c2.5,1.3,5.4-0.8,4.9-3.6l-3.6-21L204,251C206,249,204.9,245.6,202.1,245.2z"/>
</g>
<path class="st2" d="M149.7,290.4l18.8-9.9v-59.3c-0.3,0-0.6,0-0.9,0.1c-0.9,0.2-1.7,0.8-2.1,1.8l-3.4,6.9l-6,12.2l-5.9,0.9
	l-15.2,2.2c-0.7,0.1-1.3,0.4-1.7,0.8c-0.2,0.2-0.4,0.4-0.6,0.7c-0.2,0.4-0.4,0.8-0.5,1.3c0,0.1,0,0.3-0.1,0.4c0,0.5,0.1,1,0.3,1.5
	c0.2,0.4,0.4,0.8,0.7,1.1l15.2,14.9l-3.2,18.6l-0.4,2.4c0,0.1,0,0.2,0,0.3c0,0.1,0,0.1,0,0.2c0,0.2,0,0.3,0,0.5
	C145.1,290.1,147.6,291.5,149.7,290.4z"/>
<g>
	<path class="st1" d="M289.5,245.2l-21.1-3.1l-9.4-19.1c-0.6-1.3-1.8-1.9-3-1.9v59.3l-18.8,9.9c-2.2,1.1-4.7-0.3-4.9-2.6
		c0.3,2.2,2.8,3.7,4.9,2.6l18.8-9.9l18.8,9.9c2.5,1.3,5.4-0.8,4.9-3.6l-3.6-21l15.2-14.9C293.4,249,292.3,245.6,289.5,245.2z"/>
	<path class="st1" d="M219.9,247.1c0.1-0.3,0.3-0.5,0.5-0.8C220.2,246.6,220,246.8,219.9,247.1z"/>
	<path class="st1" d="M254.9,221.4c-0.8,0.3-1.5,0.8-1.9,1.7l-3.4,6.9l3.4-6.9C253.4,222.2,254.1,221.7,254.9,221.4z"/>
	<path class="st1" d="M222.5,245.2l15.4-2.2L222.5,245.2c-0.9,0.1-1.6,0.5-2.1,1.1C220.9,245.8,221.6,245.4,222.5,245.2z"/>
	<path class="st1" d="M220.6,251c-0.3-0.3-0.6-0.7-0.7-1.1C220,250.3,220.3,250.7,220.6,251l15.2,14.9l-3.2,18.6l3.2-18.6L220.6,251
		z"/>
	<path class="st1" d="M219.6,248.4c0-0.2,0-0.3,0.1-0.4C219.6,248.1,219.6,248.3,219.6,248.4z"/>
	<path class="st1" d="M232.2,287.4c0-0.1,0-0.1,0-0.2C232.2,287.2,232.2,287.3,232.2,287.4z"/>
</g>
<path class="st2" d="M237.2,290.4l18.8-9.9v-59.3c-0.4,0-0.8,0.1-1.1,0.2c-0.8,0.3-1.5,0.8-1.9,1.7l-3.4,6.9l-6,12.2l-5.7,0.8
	l-15.4,2.2c-0.9,0.1-1.6,0.5-2.1,1.1c-0.2,0.2-0.4,0.5-0.5,0.8s-0.2,0.6-0.3,0.9c0,0.1,0,0.3-0.1,0.4c0,0.5,0.1,1,0.3,1.5
	c0.2,0.4,0.4,0.8,0.7,1.1l15.2,14.9l-3.2,18.6l-0.4,2.4c0,0.1,0,0.2,0,0.3c0,0.1,0,0.1,0,0.2c0,0.2,0,0.3,0,0.5
	C232.5,290.1,235,291.5,237.2,290.4z"/>
<g>
	<path class="st1" d="M319.6,287.4c0-0.1,0-0.1,0-0.2C319.6,287.2,319.6,287.3,319.6,287.4z"/>
	<path class="st1" d="M308,251c-0.3-0.3-0.6-0.7-0.7-1.1C307.4,250.3,307.7,250.7,308,251l15.2,14.9l-3.2,18.6l3.2-18.6L308,251z"/>
	<path class="st1" d="M309.9,245.2l15.4-2.2L309.9,245.2c-0.9,0.1-1.6,0.5-2.1,1.1C308.3,245.8,309,245.4,309.9,245.2z"/>
	<path class="st1" d="M307.2,247.5c0.1-0.3,0.2-0.6,0.4-0.8C307.4,247,307.3,247.2,307.2,247.5z"/>
	<path class="st1" d="M307,248.4c0-0.2,0-0.3,0.1-0.4C307,248.1,307,248.3,307,248.4z"/>
	<path class="st1" d="M342.5,221.3c-0.9,0.2-1.7,0.8-2.1,1.8l-4.3,8.8l4.3-8.8C340.9,222.1,341.6,221.5,342.5,221.3z"/>
	<path class="st1" d="M376.9,245.2l-21.1-3.1l-9.4-19.1c-0.6-1.3-1.8-1.9-3-1.9v59.3l-18.8,9.9c-2.2,1.1-4.7-0.3-4.9-2.6
		c0.3,2.2,2.8,3.7,4.9,2.6l18.8-9.9l18.8,9.9c2.5,1.3,5.4-0.8,4.9-3.6l-3.6-21l15.2-14.9C380.8,249,379.7,245.6,376.9,245.2z"/>
</g>
<path class="st2" d="M324.6,290.4l18.8-9.9v-59.3c-0.3,0-0.6,0-0.9,0.1c-0.9,0.2-1.7,0.8-2.1,1.8l-4.3,8.8l-5.1,10.3l-5.7,0.8
	l-15.4,2.2c-0.9,0.1-1.6,0.5-2.1,1.1c-0.1,0.1-0.2,0.2-0.3,0.4c-0.2,0.3-0.3,0.5-0.4,0.8c0,0.1-0.1,0.3-0.1,0.4c0,0.1,0,0.3-0.1,0.4
	c0,0.5,0.1,1,0.3,1.5c0.2,0.4,0.4,0.8,0.7,1.1l15.2,14.9l-3.2,18.6l-0.4,2.4c0,0.1,0,0.2,0,0.3c0,0.1,0,0.1,0,0.2c0,0.2,0,0.3,0,0.5
	C319.9,290.1,322.4,291.5,324.6,290.4z"/>
<polygon class="st0" points="437.4,250.2 435.4,246.1 430.8,236.9 426.3,246.1 424.2,250.2 419.6,250.9 409.5,252.4 416.8,259.5 
	420.2,262.8 419.4,267.4 417.6,277.5 426.7,272.7 430.8,270.5 434.9,272.7 444,277.5 442.3,267.4 441.5,262.8 444.8,259.5 
	452.2,252.4 442,250.9 "/>
<path class="st2" d="M464.4,245.2l-21.1-3.1l-9.4-19.1c-0.6-1.3-1.8-1.9-3-1.9s-2.4,0.6-3,1.9l-9.4,19.1l-21.1,3.1
	c-2.8,0.4-3.9,3.8-1.9,5.8l15.2,14.9l-3.6,21c-0.4,2.2,1.4,4,3.3,4c0.5,0,1.1-0.1,1.6-0.4l18.8-9.9l18.8,9.9
	c0.5,0.3,1.1,0.4,1.6,0.4c2,0,3.7-1.8,3.3-4l-3.6-21l15.2-14.9C468.2,249,467.1,245.6,464.4,245.2z M444.8,259.5l-3.3,3.2l0.8,4.6
	l1.7,10.1l-9.1-4.8l-4.1-2.2l-4.1,2.2l-9.1,4.8l1.7-10.1l0.8-4.6l-3.3-3.2l-7.3-7.2l10.1-1.5l4.6-0.7l2.1-4.2l4.5-9.2l4.5,9.2
	l2.1,4.2l4.6,0.7l10.1,1.5L444.8,259.5z"/>
</svg>
