<?xml version="1.0" encoding="utf-8"?>
<!-- Generator: Adobe Illustrator 22.1.0, SVG Export Plug-In . SVG Version: 6.00 Build 0)  -->
<svg version="1.1" id="Capa_1" xmlns="http://www.w3.org/2000/svg" xmlns:xlink="http://www.w3.org/1999/xlink" x="0px" y="0px" width="30px" height="30px"
	 viewBox="0 0 480.3 480.3" style="enable-background:new 0 0 480.3 480.3;" xml:space="preserve">
<style type="text/css">
	.st0{fill:#424242;}
</style>
<g>
	<g>
		<path class="st0" d="M234.1,226.2l-220.6,0.7c-7.5,0-13.5,6-13.5,13.5c0,7.5,6,13.5,13.5,13.5l220.6-0.7
			c6.4,31.3,34.2,54.9,67.4,54.8c33.2-0.1,60.8-23.9,67-55.2l98.2-0.3c7.5,0,13.5-6,13.5-13.5s-6-13.5-13.5-13.5l-98.2,0.3
			c-6.4-31.3-34.2-54.9-67.4-54.8C268,171.1,240.3,194.7,234.1,226.2z M342.8,239.3c0.1,22.9-18.5,41.6-41.4,41.6
			c-22.9,0.1-41.6-18.5-41.6-41.4c-0.1-22.9,18.5-41.6,41.4-41.6C324.1,197.9,342.7,216.4,342.8,239.3z"/>
		<path class="st0" d="M121.4,391.8L14,392.1c-7.5,0-13.5,6-13.5,13.5c0,7.5,6,13.5,13.5,13.5l107.4-0.3
			c6.4,31.3,34.2,54.9,67.4,54.8s60.8-23.9,67-55.2l211.4-0.6c7.5,0,13.5-6,13.5-13.5s-6-13.5-13.5-13.5l-211.5,0.6
			c-6.4-31.3-34.2-54.9-67.4-54.8C155.1,336.7,127.6,360.5,121.4,391.8z M230.1,405c0.1,22.9-18.5,41.6-41.4,41.6
			s-41.6-18.5-41.6-41.4c-0.1-22.9,18.5-41.6,41.4-41.6S230,382.2,230.1,405z"/>
		<path class="st0" d="M120.4,62.2L13,62.5c-7.5,0-13.5,6-13.5,13.5c0,7.5,6,13.5,13.5,13.5l107.4-0.3c6.4,31.3,34.2,54.9,67.4,54.8
			c33.2-0.1,60.8-23.9,67-55.2l211.5-0.6c7.5,0,13.5-6,13.5-13.5c0-7.5-6-13.5-13.5-13.5l-211.6,0.6C248.3,30.5,220.5,6.9,187.3,7
			S126.6,30.8,120.4,62.2z M229.1,75.4c0.1,22.9-18.5,41.6-41.4,41.6s-41.6-18.5-41.6-41.4C146,52.7,164.6,34.1,187.5,34
			S229,52.5,229.1,75.4z"/>
	</g>
</g>
</svg>
