<?xml version="1.0" encoding="utf-8"?>
<!-- Generator: Adobe Illustrator 22.1.0, SVG Export Plug-In . SVG Version: 6.00 Build 0)  -->
<svg version="1.1" id="Capa_1" xmlns="http://www.w3.org/2000/svg" xmlns:xlink="http://www.w3.org/1999/xlink" x="0px" y="0px" width="20px" height="20px"
	 viewBox="0 0 20 20" style="enable-background:new 0 0 20 20;" xml:space="preserve">
<style type="text/css">
	.st0{fill:#C8C4BB;}
</style>
<g>
	<path class="st0" d="M15.8,12.8c-1.2,0-2.2,0.5-2.8,1.4l-5.5-3.1c0.1-0.4,0.2-0.8,0.2-1.2c0-0.4-0.1-0.8-0.2-1.2L13,5.7
		c0.7,0.9,1.7,1.4,2.8,1.4c2,0,3.6-1.6,3.6-3.6S17.8,0,15.8,0s-3.6,1.6-3.6,3.6c0,0.4,0.1,0.8,0.2,1.2L7,7.8C6.3,7,5.3,6.4,4.1,6.4
		c-2,0-3.6,1.6-3.6,3.6s1.6,3.6,3.6,3.6c1.2,0,2.2-0.6,2.8-1.4l5.5,3.1c-0.1,0.4-0.2,0.8-0.2,1.2c0,2,1.6,3.6,3.6,3.6
		s3.6-1.6,3.6-3.6S17.8,12.8,15.8,12.8z M15.8,1.1c1.4,0,2.5,1.1,2.5,2.5S17.2,6,15.8,6s-2.5-1.1-2.5-2.5S14.5,1.1,15.8,1.1z
		 M4.2,12.5c-1.4,0-2.5-1.1-2.5-2.5s1.1-2.5,2.5-2.5S6.6,8.6,6.6,10S5.5,12.5,4.2,12.5z M15.8,18.9c-1.4,0-2.5-1.1-2.5-2.5
		s1.1-2.5,2.5-2.5s2.5,1.1,2.5,2.5S17.2,18.9,15.8,18.9z"/>
</g>
</svg>
