<?xml version="1.0" encoding="utf-8"?>
<!-- Generator: Adobe Illustrator 22.1.0, SVG Export Plug-In . SVG Version: 6.00 Build 0)  -->
<svg version="1.1" id="Layer_1" xmlns="http://www.w3.org/2000/svg" xmlns:xlink="http://www.w3.org/1999/xlink" x="0px" y="0px" width="20px" height="20px"
	 viewBox="0 0 20 20" style="enable-background:new 0 0 20 20;" xml:space="preserve">
<style type="text/css">
	.st0{fill:#424750;}
</style>
<path class="st0" d="M6.4,12.9L6.4,12.9C6.4,12.9,6.4,12.9,6.4,12.9l10.6,0c0.3,0,0.5-0.2,0.6-0.4L20,4.3c0.1-0.2,0-0.4-0.1-0.5
	c-0.1-0.1-0.3-0.2-0.5-0.2H5.1L4.7,1.7C4.6,1.4,4.4,1.2,4.1,1.2H0.6C0.3,1.2,0,1.5,0,1.8s0.3,0.6,0.6,0.6h3c0.1,0.3,2,9,2.1,9.5
	c-0.6,0.3-1.1,0.9-1.1,1.6c0,1,0.8,1.8,1.8,1.8h10.6c0.3,0,0.6-0.3,0.6-0.6c0-0.3-0.3-0.6-0.6-0.6H6.4c-0.3,0-0.6-0.3-0.6-0.6
	C5.9,13.2,6.1,12.9,6.4,12.9z M18.6,4.7l-2,7H6.9l-1.6-7H18.6z"/>
<path class="st0" d="M5.9,17c0,1,0.8,1.8,1.8,1.8S9.4,18,9.4,17s-0.8-1.8-1.8-1.8S5.9,16.1,5.9,17z M7.6,16.4c0.3,0,0.6,0.3,0.6,0.6
	s-0.3,0.6-0.6,0.6C7.3,17.6,7,17.4,7,17S7.3,16.4,7.6,16.4z"/>
<path class="st0" d="M14.1,17c0,1,0.8,1.8,1.8,1.8s1.8-0.8,1.8-1.8s-0.8-1.8-1.8-1.8S14.1,16.1,14.1,17z M15.9,16.4
	c0.3,0,0.6,0.3,0.6,0.6s-0.3,0.6-0.6,0.6s-0.6-0.3-0.6-0.6S15.6,16.4,15.9,16.4z"/>
</svg>
