<?xml version="1.0" encoding="utf-8"?>
<!-- Generator: Adobe Illustrator 22.1.0, SVG Export Plug-In . SVG Version: 6.00 Build 0)  -->
<svg version="1.1" id="Layer_1" xmlns="http://www.w3.org/2000/svg" xmlns:xlink="http://www.w3.org/1999/xlink" x="0px" y="0px" width="13px" height="13px"
	 viewBox="0 0 512 512" style="enable-background:new 0 0 512 512;" xml:space="preserve">
<style type="text/css">
	.st0{fill:#FFDC69;}
</style>
<path class="st0" d="M497.7,242.9c13-12.6,17.6-31.2,12-48.4c-5.6-17.2-20.2-29.5-38.1-32.1l-110.7-16.1c-5.6-0.8-10.5-4.3-13-9.4
	L298.4,36.5c-8-16.2-24.2-26.3-42.4-26.3s-34.3,10.1-42.4,26.3c0,0-49.5,100.3-49.5,100.3c-2.5,5.1-7.4,8.6-13,9.4L40.5,162.4
	C22.5,165,7.9,177.3,2.4,194.5c-5.6,17.2-1,35.8,11.9,48.4L94.4,321c4.1,4,5.9,9.7,5,15.2L80.4,446.5c-3.1,17.9,4.1,35.5,18.8,46.2
	c14.6,10.6,33.7,12,49.7,3.6l99-52.1c5-2.6,11-2.6,16,0l99,52.1c16,8.4,35.1,7,49.7-3.6c14.6-10.6,21.8-28.3,18.8-46.2l-18.9-110.2
	c-1-5.6,0.9-11.3,5-15.3L497.7,242.9z M383.1,341.3L252,338.5c1.1,6.6,80.9,44.1,75.5,48c-3,2.2-17.6-55.8-20-58.5
	c-31.6-35-283.7-170.9-54,99.5l24.5-9.8c-6.8-3.5-14.4-5.4-22-5.4c-7.6,0-15.2,1.9-22,5.4l-99,52.1c-6.8,3.6,229.5-100.4,225-103.7
	c-5.4-3.9-14.1,22.6-13,16l21.5-18c2.6-15.3-65.4-52.7-76.5-63.5l-35.5,25c-4.7-4.6,84.1-69.7-211.8-119.4
	C36.8,204.8,313.4,391.4,192,272c0,0,51.4,79,51.5,79L117,181.6l47,157.9C181,485,474,460.9,395.5,322l23.5-52.5
	c3-6-103.2-70-96.5-70s18.5,15,21.5,21L380.5,322c6.9,13.9,62.6-75.2,78-73c24.5,3.6-7.2-25.7,32-20c6.6,1-11.5-31.6-9.4-25.2
	C190,189,224,222,476.8,221.4l-80.1,78.1C385.5,310.4,380.5,326,383.1,341.3L383.1,341.3z"/>
</svg>
