<?xml version="1.0" encoding="utf-8"?>
<!-- Generator: Adobe Illustrator 22.1.0, SVG Export Plug-In . SVG Version: 6.00 Build 0)  -->
<svg version="1.1" id="Layer_1" xmlns="http://www.w3.org/2000/svg" xmlns:xlink="http://www.w3.org/1999/xlink" x="0px" y="0px" width="25px" height="25px"
	 viewBox="0 0 512 512" style="enable-background:new 0 0 512 512;" xml:space="preserve">
<style type="text/css">
	.st0{fill:#929292;}
</style>
<path class="st0" d="M362.7,405.7H149.3C67,405.7,0,338.7,0,256.3C0,174,67,107,149.3,107h213.3C445,107,512,174,512,256.3
	C512,338.7,445,405.7,362.7,405.7z M149.3,139C84.6,139,32,191.7,32,256.3c0,64.7,52.6,117.3,117.3,117.3h213.3
	c64.7,0,117.3-52.7,117.3-117.3c0-64.7-52.6-117.3-117.3-117.3H149.3z"/>
<path class="st0" d="M362.7,341.7c-47.1,0-85.3-38.3-85.3-85.3c0-47.1,38.3-85.3,85.3-85.3c47.1,0,85.3,38.3,85.3,85.3
	C448,303.4,409.7,341.7,362.7,341.7z M362.7,203c-29.4,0-53.3,23.9-53.3,53.3c0,29.4,23.9,53.3,53.3,53.3
	c29.4,0,53.3-23.9,53.3-53.3C416,226.9,392.1,203,362.7,203z"/>
</svg>
