<?xml version="1.0" encoding="utf-8"?>
<!-- Generator: Adobe Illustrator 22.1.0, SVG Export Plug-In . SVG Version: 6.00 Build 0)  -->
<svg version="1.1" id="Layer_1" xmlns="http://www.w3.org/2000/svg" xmlns:xlink="http://www.w3.org/1999/xlink" x="0px" y="0px"
	 viewBox="0 0 50 50" style="enable-background:new 0 0 50 50;" xml:space="preserve">
<style type="text/css">
	.st0{fill:#AAAAAA;}
</style>
<path class="st0" d="M35.8,20.8c-7.8,0-14.2,6.3-14.2,14.2S28,49.2,35.8,49.2S50,42.8,50,35C50,27.2,43.7,20.8,35.8,20.8z
	 M35.8,47.5c-6.9,0-12.5-5.6-12.5-12.5s5.6-12.5,12.5-12.5S48.3,28.1,48.3,35C48.3,41.9,42.7,47.5,35.8,47.5z"/>
<path class="st0" d="M36.7,32.7v-5.2H35v5.2c-0.7,0.3-1.3,0.8-1.5,1.5H30v1.7h3.5c0.4,1.1,1.5,1.8,2.6,1.7c1.2-0.1,2.1-1,2.2-2.2
	C38.4,34.1,37.8,33,36.7,32.7z M35.8,35.8c-0.5,0-0.8-0.4-0.8-0.8s0.4-0.8,0.8-0.8s0.8,0.4,0.8,0.8S36.3,35.8,35.8,35.8z"/>
<path class="st0" d="M25,34.2h1.7v1.7H25V34.2z"/>
<path class="st0" d="M35,44.2h1.7v1.7H35V44.2z"/>
<path class="st0" d="M45,34.2h1.7v1.7H45V34.2z"/>
<path class="st0" d="M35,24.2h1.7v1.7H35V24.2z"/>
<path class="st0" d="M1.7,36.7V12.5H40V20h1.7V8.3c0-2.3-1.9-4.2-4.2-4.2h-5.8V3.3c0-1.4-1.1-2.5-2.5-2.5S26.7,2,26.7,3.3v0.8H15
	V3.3c0-1.4-1.1-2.5-2.5-2.5S10,2,10,3.3v0.8H4.2C1.9,4.2,0,6,0,8.3v28.3c0,2.3,1.9,4.2,4.2,4.2h16.7v-1.7H4.2
	C2.8,39.2,1.7,38,1.7,36.7z M28.3,3.3c0-0.5,0.4-0.8,0.8-0.8S30,2.9,30,3.3v3.3c0,0.5-0.4,0.8-0.8,0.8s-0.8-0.4-0.8-0.8V3.3z
	 M11.7,3.3c0-0.5,0.4-0.8,0.8-0.8s0.8,0.4,0.8,0.8v3.3c0,0.5-0.4,0.8-0.8,0.8s-0.8-0.4-0.8-0.8V3.3z M4.2,5.8H10v0.8
	c0,1.4,1.1,2.5,2.5,2.5S15,8,15,6.7V5.8h11.7v0.8c0,1.4,1.1,2.5,2.5,2.5s2.5-1.1,2.5-2.5V5.8h5.8C38.9,5.8,40,7,40,8.3v2.5H1.7V8.3
	C1.7,7,2.8,5.8,4.2,5.8z"/>
<path class="st0" d="M11.7,19.2c0-0.9-0.7-1.7-1.7-1.7H6.7c-0.9,0-1.7,0.7-1.7,1.7v3.3c0,0.9,0.7,1.7,1.7,1.7H10
	c0.9,0,1.7-0.7,1.7-1.7V19.2z M6.7,22.5v-3.3H10v3.3H6.7z"/>
<path class="st0" d="M20,19.2c0-0.9-0.7-1.7-1.7-1.7H15c-0.9,0-1.7,0.7-1.7,1.7v3.3c0,0.9,0.7,1.7,1.7,1.7h3.3
	c0.9,0,1.7-0.7,1.7-1.7V19.2z M15,22.5v-3.3h3.3v3.3H15z"/>
<path class="st0" d="M28.3,21.7v-2.5c0-0.9-0.7-1.7-1.7-1.7h-3.3c-0.9,0-1.7,0.7-1.7,1.7v3.3c0,0.9,0.7,1.7,1.7,1.7H25v-1.7h-1.7
	v-3.3h3.3v2.5H28.3z"/>
<path class="st0" d="M10,27.5H6.7c-0.9,0-1.7,0.7-1.7,1.7v3.3c0,0.9,0.7,1.7,1.7,1.7H10c0.9,0,1.7-0.7,1.7-1.7v-3.3
	C11.7,28.2,10.9,27.5,10,27.5z M6.7,32.5v-3.3H10v3.3H6.7z"/>
<path class="st0" d="M18.3,27.5H15c-0.9,0-1.7,0.7-1.7,1.7v3.3c0,0.9,0.7,1.7,1.7,1.7h3.3c0.9,0,1.7-0.7,1.7-1.7v-3.3
	C20,28.2,19.3,27.5,18.3,27.5z M15,32.5v-3.3h3.3v3.3H15z"/>
<path class="st0" d="M36.7,20v-0.8c0-0.9-0.7-1.7-1.7-1.7h-3.3c-0.9,0-1.7,0.7-1.7,1.7V20h1.7v-0.8H35V20H36.7z"/>
</svg>
