<?xml version="1.0" encoding="utf-8"?>
<!-- Generator: Adobe Illustrator 22.1.0, SVG Export Plug-In . SVG Version: 6.00 Build 0)  -->
<svg version="1.1" id="Layer" xmlns="http://www.w3.org/2000/svg" xmlns:xlink="http://www.w3.org/1999/xlink" x="0px" y="0px"
	 viewBox="0 0 50 50" style="enable-background:new 0 0 50 50;" xml:space="preserve">
<style type="text/css">
	.st0{fill:#FFA500;}
</style>
<path class="st0" d="M24.5,12.2l-5.5-5.5c-0.6-0.6-1.6-0.6-2.2,0l-5.5,5.5c-0.6,0.6-0.6,1.6,0,2.2c0.6,0.6,1.6,0.6,2.2,0l2.8-2.8
	v30.6c0,0.9,0.7,1.6,1.6,1.6c0.9,0,1.6-0.7,1.6-1.6V11.6l2.8,2.8c0.3,0.3,0.7,0.5,1.1,0.5s0.8-0.2,1.1-0.5
	C25.2,13.8,25.2,12.8,24.5,12.2z"/>
<path class="st0" d="M38.6,35.6C38,35,37,35,36.4,35.6l-2.8,2.8V7.8c0-0.9-0.7-1.6-1.6-1.6c-0.9,0-1.6,0.7-1.6,1.6v30.6l-2.8-2.8
	c-0.6-0.6-1.6-0.6-2.2,0c-0.6,0.6-0.6,1.6,0,2.2l5.5,5.5c0.3,0.3,0.7,0.5,1.1,0.5c0.4,0,0.8-0.2,1.1-0.5l5.5-5.5
	C39.2,37.2,39.2,36.2,38.6,35.6z"/>
</svg>
