<?xml version="1.0" encoding="utf-8"?>
<!-- Generator: Adobe Illustrator 22.1.0, SVG Export Plug-In . SVG Version: 6.00 Build 0)  -->
<svg  width="70px" height="70px" version="1.1" id="Layer_1" xmlns="http://www.w3.org/2000/svg" xmlns:xlink="http://www.w3.org/1999/xlink" x="0px" y="0px"
	 viewBox="0 0 70 70" style="enable-background:new 0 0 70 70;" xml:space="preserve">
<style type="text/css">
	.st0{fill:#AAAAAA;}
</style>
<g>
	<g transform="translate(-565.000000, -367.000000)">
		<g transform="translate(0.000000, 60.000000)">
			<g transform="translate(200.000000, 312.000000)">
				<g transform="translate(359.000000, 0.000000)">
					<g transform="translate(6.000000, -5.000000)">
						<path class="st0" d="M35,68.8c18.7,0,33.8-15.1,33.8-33.8S53.7,1.2,35,1.2S1.2,16.3,1.2,35S16.3,68.8,35,68.8z M35,70
							C15.7,70,0,54.3,0,35S15.7,0,35,0s35,15.7,35,35S54.3,70,35,70z M14,43.1v7.8c0,0.9,0.8,1.7,1.7,1.7h2.2l0-13.3
							C15.8,39.2,14,41,14,43.1z M52.1,39.2v13.3h2.2c0.9,0,1.7-0.8,1.7-1.7v-7.8C56,41,54.2,39.2,52.1,39.2z M44.4,37v-3.2h2.9
							c1.2,0,2.3-0.3,3.3-0.9v20.7c0,1.3-1.1,2.4-2.5,2.4h-26c-1.4,0-2.5-1.1-2.5-2.4V32.8c0.9,0.6,2.1,0.9,3.3,0.9h2.9V37
							c0,0.6,0.5,1.1,1.1,1.1c0.6,0,1.1-0.5,1.1-1.1v-3.2h14.2V37c0,0.6,0.5,1.1,1.1,1.1S44.4,37.5,44.4,37z M47.8,42.8
							c0-0.6-0.5-1.1-1.1-1.1H23.4c-0.6,0-1.1,0.5-1.1,1.1v8.8c0,0.6,0.5,1.1,1.1,1.1h23.3c0.6,0,1.1-0.5,1.1-1.1V42.8z M24.5,43.8
							h21.2v6.7H24.5V43.8z M25.6,44.9v4.4h19v-4.4H25.6z M30.2,17.3c0.8-2,2.7-3.3,4.8-3.3c2.2,0,4,1.4,4.8,3.3h7.5
							c2.1,0,3.9,1.7,3.9,3.8v6.6c0,2.1-1.7,3.8-3.9,3.8h-2.9v-6.7c0-0.6-0.5-1.1-1.1-1.1c-0.6,0-1.1,0.5-1.1,1.1v6.7H28v-6.7
							c0-0.6-0.5-1.1-1.1-1.1c-0.6,0-1.1,0.5-1.1,1.1v6.7h-2.9c-2.1,0-3.9-1.7-3.9-3.8v-6.6c0-2.1,1.7-3.8,3.9-3.8H30.2z M31.3,17.3
							h7.3c-0.7-1.3-2.1-2.2-3.7-2.2C33.4,15.1,32.1,16,31.3,17.3z"/>
					</g>
				</g>
			</g>
		</g>
	</g>
</g>
</svg>
