<?xml version="1.0" encoding="utf-8"?>
<!-- Generator: Adobe Illustrator 22.1.0, SVG Export Plug-In . SVG Version: 6.00 Build 0)  -->
<svg version="1.1" id="Layer_1" xmlns="http://www.w3.org/2000/svg" xmlns:xlink="http://www.w3.org/1999/xlink" x="0px" y="0px"
	 viewBox="0 0 27 27" style="enable-background:new 0 0 27 27;" xml:space="preserve">
<style type="text/css">
	.st0{fill:#AAAAAA;}
</style>
<g>
	<path class="st0" d="M13.5,11.8c3,0,5.3-2.4,5.3-5.3s-2.4-5.3-5.3-5.3S8.2,3.5,8.2,6.5S10.5,11.8,13.5,11.8z M13.5,12.9
		C9.9,12.9,7,10,7,6.5S9.9,0,13.5,0S20,2.9,20,6.5S17.1,12.9,13.5,12.9z M24.8,27c0-6.2-5-11.3-11.3-11.3S2.3,20.8,2.3,27H1.1
		c0-6.8,5.5-12.4,12.4-12.4S25.9,20.2,25.9,27h-0.6H24.8z"/>
</g>
</svg>
