<?xml version="1.0" encoding="utf-8"?>
<!-- Generator: Adobe Illustrator 23.1.0, SVG Export Plug-In . SVG Version: 6.00 Build 0)  -->
<svg version="1.1" id="Layer_1" xmlns="http://www.w3.org/2000/svg" xmlns:xlink="http://www.w3.org/1999/xlink" x="0px" y="0px"
	 viewBox="0 0 50 50" style="enable-background:new 0 0 50 50;" xml:space="preserve">
<style type="text/css">
	.st0{fill:none;}
	.st1{fill:#FFFFFF;}
</style>
<g>
	<path class="st0" d="M0,0h50v50H0V0z"/>
	<path class="st1" d="M44.2,38.9l-6.3-6.3c4.6-7.1,3.6-16.5-2.4-22.5C28.4,3,17,3,10,10c-6,6-7,15.4-2.4,22.5
		c5.4,8.3,16.5,10.7,24.9,5.3l6.3,6.3c0.7,0.7,1.7,1.1,2.7,1.1c1,0,2-0.4,2.7-1.1C45.6,42.7,45.6,40.3,44.2,38.9z M22.7,33.3
		c-5.8,0-10.5-4.7-10.5-10.5s4.7-10.5,10.5-10.5c5.8,0,10.5,4.7,10.5,10.5C33.2,28.6,28.5,33.3,22.7,33.3z"/>
</g>
</svg>
