<?xml version="1.0" encoding="utf-8"?>
<!-- Generator: Adobe Illustrator 23.1.0, SVG Export Plug-In . SVG Version: 6.00 Build 0)  -->
<svg version="1.1" id="Layer_1" xmlns="http://www.w3.org/2000/svg" xmlns:xlink="http://www.w3.org/1999/xlink" x="0px" y="0px"
	 viewBox="0 0 30 30" style="enable-background:new 0 0 30 30;" xml:space="preserve">
<style type="text/css">
	.st0{fill:none;}
	.st1{fill:#F95862;}
</style>
<g>
	<path class="st0" d="M0,0h30v30H0V0z"/>
	<path class="st1" d="M29.9,11.5c-0.2-0.6-0.7-1-1.3-1.1l-8.3-1.2l-3.7-7.6c-0.5-0.8-1.5-1.1-2.4-0.6c-0.3,0.1-0.5,0.4-0.6,0.6
		L9.8,9.1l-8.3,1.2c-0.9,0.1-1.5,1-1.4,1.9c0.1,0.4,0.2,0.7,0.5,1l6,5.9l-1.4,8.3c-0.2,0.9,0.4,1.8,1.4,1.9c0.4,0.1,0.7,0,1.1-0.2
		l7.5-3.9l7.5,3.9c0.8,0.4,1.8,0.1,2.2-0.7c0.2-0.3,0.2-0.7,0.2-1.1L23.5,19l6-5.9C30,12.7,30.1,12.1,29.9,11.5"/>
</g>
</svg>
